<svg class="w-16 lg:w-24 xl:w-[107px]" xmlns="http://www.w3.org/2000/svg" fill="none" viewBox="0 0 84 58"><path fill="#00195C" d="M69.3804 42.0944C77.921 42.0944 84 36.9818 84 29.7431c0-14.2749-21.0502-10.7821-21.0502-17.8183 0-2.22725 2.0095-3.49275 5.3756-3.49275 3.9186 0 6.3803 1.82235 7.0334 5.16325.0503.1519.1508.2025.2512.2025h7.9378c.1005 0 .201-.0506.201-.2025C83.0454 5.59732 77.1172.585938 68.3254.585938c-8.1388 0-13.8661 4.808912-13.8661 11.591962 0 13.8193 21.0503 9.466 21.0503 18.0208 0 2.531-2.311 4.0496-6.1292 4.0496s-6.5814-1.8729-7.4354-5.2645c-.0503-.1012-.1507-.1519-.2512-.1519h-8.0383c-.1005 0-.201.1013-.1507.2025 1.2057 7.998 7.3349 13.06 15.8756 13.06Zm-37.4785-7.8967c-7.1842 0-12.3086-5.3658-12.3086-12.9081 0-7.5424 5.1244-12.85755 12.3086-12.85755 7.1842 0 12.2584 5.31515 12.2584 12.85755 0 7.5423-5.0742 12.9081-12.2584 12.9081ZM.200957 41.6388H7.98804c.10048 0 .20096-.1012.20096-.2025V1.34524c0-.10124-.10048-.20248-.20096-.20248H.200957C.100478 1.14276 0 1.244 0 1.34524V41.4363c0 .1013.100478.2025.200957.2025Zm31.700943.4556c12.1579 0 20.7488-8.6054 20.7488-20.7542 0-12.14885-8.5909-20.754262-20.7488-20.754262S11.1531 9.19135 11.1531 21.3402c0 12.1488 8.5909 20.7542 20.7488 20.7542Z"></path><path fill="#16DE66" d="M51.2434 42.044h-9.4953c-.1004 0-.2009-.0506-.2511-.1012L29.4898 25.1369c-.1005-.1012-.0503-.2531.1005-.2531h9.4952c.1004 0 .2009.0506.2512.1012l12.0071 16.8059c.1005.1012.0503.2531-.1004.2531Z"></path><path fill="#727272" fill-rule="evenodd" d="M0 49.2666h84v7.843H0v-7.843Zm79.0927 4.9618v.7521h-2.2571v-3.5803h.8695v2.8282h1.3876Zm-2.9149 0v.7521h-2.2572v-3.5803h.8695v2.8282h1.3877ZM72.97 51.4002v2.2293c.0045.2026-.0361.4008-.1082.5899-.0675.1712-.1757.3288-.3108.4549-.1397.1306-.3064.2342-.4866.2972-.4145.1397-.8605.1397-1.275 0-.1802-.0675-.3424-.1666-.4821-.2972-.1307-.1261-.2343-.2837-.3019-.4549-.0765-.1891-.1126-.3873-.1081-.5899v-2.2293h.8605v2.1617c-.0045.0946.0091.1892.0361.2792.0225.0856.0631.1622.1171.2342.0541.0721.1262.1306.2073.1667.1982.081.4235.081.6217 0 .0856-.0406.1577-.0946.2118-.1667.054-.0675.0946-.1486.1171-.2342.0225-.09.036-.1846.036-.2792v-2.1617h.8651Zm-3.5728 2.8282v.7521H67.14v-3.5803h.8696v2.8282h1.3876Zm-2.915 0v.7521h-2.2571v-3.5803h.8695v2.8282h1.3876Zm-4.7711-2.8282v3.5803h-.9777l-1.4417-2.3418h-.0135l.018 2.3418h-.8425v-3.5803h.9867l1.4372 2.3374h.0135l-.018-2.3374h.838Zm-5.2983 2.5715c.0946-.1035.1667-.2206.2117-.3512.0541-.1442.0766-.2928.0811-.4459 0-.1486-.027-.2972-.0766-.4368-.0495-.1261-.1216-.2477-.2117-.3468s-.2028-.1757-.3244-.2297c-.1352-.054-.2748-.0811-.419-.0811-.2793-.0045-.5451.1081-.7389.3108-.0946.0991-.1667.2162-.2117.3468-.0946.2882-.0946.5989.0045.8827.0495.1306.1216.2477.2117.3512.0901.0991.1983.1757.3199.2297.2658.1126.5632.1126.829 0 .1216-.054.2343-.1306.3244-.2297Zm.6623-2.1662c.1757.1667.3153.3693.4055.59.1982.4999.1982 1.0538 0 1.5537-.0902.2297-.2298.4324-.4055.6035-.1802.1711-.392.3017-.6218.3873-.5046.1802-1.0542.1802-1.5588 0-.2298-.0856-.4415-.2162-.6173-.3873-.1757-.1711-.3153-.3783-.4054-.6035-.1938-.4999-.1938-1.0538 0-1.5537.0901-.2252.2297-.4233.4054-.59.1803-.1621.3875-.2927.6173-.3738.5046-.1756 1.0542-.1756 1.5588 0 .2298.0811.4416.2072.6218.3738Zm-4.1675-.4053v3.5803h-.847l.018-2.5355h-.0135l-.9326 2.5355h-.6082l-.9056-2.5355h-.0135l.018 2.5355h-.8155v-3.5803h1.23l.8155 2.2968h.0225l.7794-2.2968h1.2525Zm-7.0329 2.1842h.9011l-.446-1.2294-.4551 1.2294Zm.8921-2.1842 1.4868 3.5803h-.9642l-.2793-.7025h-1.3876l-.2614.7025h-.9416l1.5048-3.5803h.8425Zm-3.8386 1.4502c.0586-.0316.1127-.0766.1487-.1307.0406-.0675.0631-.1441.0586-.2251.009-.1351-.0631-.2657-.1892-.3243-.0586-.0315-.1217-.0495-.1893-.0585-.0675-.009-.1351-.0135-.2027-.0135h-.4595v.8331h.4144c.0721 0 .1442-.0045.2163-.018.0676-.009.1397-.0315.2027-.063Zm1.2515 2.1211.0055.009v-.009h-.0055Zm-.9316-1.5222.9316 1.5222h-1.0082l-.7794-1.4231h-.2928v1.4231h-.847v-3.5803h1.3651c.1667 0 .3379.018.5046.054.1577.0316.3063.0946.4415.1802.1307.0855.2343.2026.3109.3377.0811.1622.1216.3378.1171.518.0045.2206-.0631.4368-.1982.6124-.1397.1712-.3289.2973-.5452.3558Zm-4.1539-1.968v.7205h-.9912v2.7787h-.847v-2.7787h-.9912v-.7205h2.8294Zm-5.0595 2.1347h.8785l-.4325-1.2025-.446 1.2025Zm.8695-2.1392 1.4552 3.5037h-.9416l-.2703-.689h-1.3561l-.2568.689h-.9191l1.4687-3.5037h.82Zm-2.1986.0045v.7205h-.9867v2.7787h-.847v-2.7787h-.9912v-.7205h2.8249Zm-4.3116 0h.8515v3.5038h-.8515v-3.5038Zm-1.3201.018c.1982.0675.383.1756.5406.3197l-.5316.572c-.0766-.0946-.1712-.1712-.2838-.2207-.1037-.0495-.2208-.0811-.3379-.0811-.0586 0-.1127.0045-.1712.0136-.0586.009-.1082.0315-.1577.0585-.0451.027-.0856.0631-.1172.1081-.0315.0495-.0495.1126-.045.1711-.0045.0541.009.1036.036.1486.0271.0406.0631.0766.1082.1036.054.0316.1126.0586.1712.0811.0469.0201.1014.0377.1596.0566.02.0064.0404.013.0611.02.0243.0084.0488.0168.0735.0253.0945.0324.1924.066.296.1053.1261.045.2433.108.3514.1891.1036.0766.1937.1801.2613.2927.0721.1351.1081.2838.1036.4369.0045.1801-.036.3603-.1126.5224-.0676.1441-.1712.2702-.2974.3693-.1261.0946-.2703.1666-.428.2117-.1622.045-.3289.0675-.5001.0675-.2523 0-.4956-.045-.7298-.1306-.2208-.0765-.4235-.2071-.5857-.3738l.5496-.5719c.0901.1126.2073.2026.3379.2657.1307.072.2748.1081.419.1081.0631 0 .1262-.0045.1847-.0181.0586-.009.1082-.0315.1577-.063.0451-.027.0811-.0676.1081-.1171.0271-.054.0406-.1171.0406-.1801 0-.0586-.0135-.1171-.0496-.1667-.036-.0495-.0856-.0945-.1396-.1261-.0721-.0405-.1487-.0765-.2298-.1036-.0528-.015-.1071-.0329-.1651-.0521-.0458-.0151-.094-.031-.1458-.0469-.1126-.0361-.2207-.0766-.3289-.1261-.1081-.0451-.2027-.1126-.2883-.1892-.0856-.0811-.1532-.1756-.2027-.2837-.0541-.1261-.0811-.2657-.0766-.4053-.0045-.1757.036-.3468.1171-.4999.0766-.1351.1802-.2522.3109-.3423.1351-.0901.2793-.1531.437-.1937.1622-.0405.3244-.063.4911-.063.2072 0 .4145.036.6082.1081Zm-3.744 1.4006c.0631-.0315.1127-.0766.1487-.1306.0406-.0676.0586-.1396.0541-.2117 0-.072-.018-.1441-.0541-.2026-.036-.0496-.0811-.0901-.1351-.1171-.0586-.0316-.1217-.0496-.1848-.0586-.063-.009-.1261-.0135-.1937-.0135h-.4505v.8152h.401c.072 0 .1441-.0045.2162-.0181.0676-.0135.1352-.0315.1982-.063Zm.3154.581.9146 1.4996h-.9867l-.7614-1.3916h-.2883v1.3916h-.829v-3.5037h1.3426c.1622 0 .3289.018.4911.054.1487.0315.2973.0901.428.1756.1306.0811.2343.1937.3064.3243.0811.1576.1171.3288.1126.5044.0045.2162-.0631.4278-.1937.599-.1397.1666-.3244.2882-.5362.3468Zm-2.7573.7791v.7205l-2.4419.0046v-3.5038h2.3563v.7115h-1.5408v.6621h1.4552v.6755h-1.4552v.7296h1.6264Zm-3.9151-2.7832h.9326l-1.3471 3.5037h-.847l-1.3246-3.5037h.9506l.811 2.4859h.018l.8065-2.4859Zm-3.9737 0h.8515v3.5037h-.8515v-3.5037Zm-.9732 0v3.5037h-.9551l-1.4102-2.2923h-.01352l.01802 2.2923h-.82448v-3.5037h.96415l1.40563 2.2878h.0136l-.0181-2.2878h.82Zm-4.11789 0v2.1842c.00451.1937-.03153.3918-.10362.5765-.07209.1711-.17571.3197-.30636.4458-.13967.1261-.30186.2252-.47757.2882-.40098.1397-.838.1397-1.24348 0-.17571-.063-.3334-.1621-.46856-.2882-.13065-.1261-.22977-.2792-.29735-.4458-.07209-.1847-.10813-.3783-.10362-.5765v-2.1842h.8425v2.1121c0 .0901.00901.1802.03604.2703.02253.081.06307.1621.11263.2296.05407.0721.12165.1261.20274.1622.19373.081.4145.081.60823 0 .08109-.0361.15318-.0946.20724-.1622.04956-.0675.09011-.1441.11264-.2296.02703-.0901.03604-.1802.03604-.2703v-2.1121h.8425Z" clip-rule="evenodd"></path></svg>