<svg width="105" height="88" viewBox="0 0 105 88" fill="none" xmlns="http://www.w3.org/2000/svg">
<path d="M77.0938 75.0938L77.75 69.8906L77.6562 62.2031V25.875C77.6562 23.9375 78.3438 22.0469 79.7188 20.2031H77.1406C76.2344 24.6719 73.4219 32.6094 68.7031 44.0156C64.2344 54.8281 62 61.7031 62 64.6406L62.0938 74.9531C62.0938 76.0781 62.3438 77.75 62.8438 79.9688C63.375 82.2188 63.6406 83.9219 63.6406 85.0781C63.6406 86.8594 62.9531 87.75 61.5781 87.75C60.2031 87.75 59.5156 86.8438 59.5156 85.0312C59.5156 83.8438 59.7969 82.0781 60.3594 79.7344C60.9219 77.4219 61.2031 75.6719 61.2031 74.4844C61.2031 70.7344 60.2656 67.9375 58.3906 66.0938C56.5469 64.2812 54.4844 63.375 52.2031 63.375C49.9531 63.375 48.0938 63.8594 46.625 64.8281C45.1562 65.7969 44.4219 67 44.4219 68.4375L44.9844 73.5469C44.9844 74.7031 44.5625 75.2812 43.7188 75.2812C42.875 75.2812 42.4531 74.6562 42.4531 73.4062L43.2969 64.6406C43.2969 61.6406 41.0469 54.8125 36.5469 44.1562C31.8594 33 29.0781 25.0312 28.2031 20.25H25.625C26.9375 22 27.5938 23.875 27.5938 25.875V72.1875L28.5312 80.0625C28.5312 81.7188 27.9688 82.5469 26.8438 82.5469C25.7188 82.5469 25.1562 81.75 25.1562 80.1562L26.1875 72.4688C26.1875 71.2812 25.9531 70.4219 25.4844 69.8906C24.4531 68.7344 20.9375 68.1562 14.9375 68.1562C8.9375 68.1562 5.9375 68.1875 5.9375 68.25L6.17188 74.4375C6.17188 75.1562 5.8125 75.5156 5.09375 75.5156C4.375 75.5156 4.01562 75.1875 4.01562 74.5312L4.29688 68.0156V10.4062C4.29688 6.71875 3.17188 3.64062 0.921875 1.17188L1.90625 0.1875C4.46875 2.4375 7.54688 3.5625 11.1406 3.5625H35.0938C39.1875 3.5625 42.125 2.375 43.9062 0L45.125 0.890625C43.5312 3.20312 42.7344 5.34375 42.7344 7.3125C42.7344 9.25 43.2344 11.4062 44.2344 13.7812C45.2344 16.125 46.3281 18.3594 47.5156 20.4844C50.7344 26.2344 52.3438 30.9375 52.3438 34.5938H53C53 30.8125 54.5938 26.1094 57.7812 20.4844C60.9375 14.9219 62.5156 10.8438 62.5156 8.25C62.5156 5.625 61.7344 3.17188 60.1719 0.890625L61.3906 0C63.1719 2.375 66.1094 3.5625 70.2031 3.5625H94.2031C97.8281 3.5625 100.906 2.4375 103.438 0.1875L104.375 1.17188C102.156 3.67188 101.047 6.75 101.047 10.4062V62.2031C101.047 63.6406 101.016 65.2031 100.953 66.8906L100.016 67.8281C99.3906 66.6094 98.4688 66 97.25 66H81.4531C80.7656 66 80.1406 66.4219 79.5781 67.2656C79.0156 68.1094 78.7344 68.8906 78.7344 69.6094L79.5312 75.4219C79.5312 76.5469 79.125 77.1094 78.3125 77.1094C77.5 77.1094 77.0938 76.4375 77.0938 75.0938Z" fill="white"/>
</svg>
